<?xml version="1.0" encoding="UTF-8"?>
<svg xmlns="http://www.w3.org/2000/svg" xmlns:xlink="http://www.w3.org/1999/xlink" width="230px" height="230px" viewBox="0 0 230 230" version="1.1">
<g id="surface1">
<path style=" stroke:none;fill-rule:nonzero;fill:rgb(27.45098%,44.705882%,63.529412%);fill-opacity:1;" d="M 81.984375 21.300781 C 90.058594 19.167969 98.210938 18.300781 106.488281 18.570312 C 110.988281 18.714844 115.476562 18.910156 119.894531 19.878906 C 128.671875 21.792969 136.824219 24.96875 143.566406 31.167969 C 149.636719 36.746094 154.453125 43.253906 158.128906 50.601562 C 159.304688 52.945312 160.234375 55.410156 161.3125 57.804688 C 161.492188 58.203125 161.785156 58.621094 162.140625 58.859375 C 163.84375 60.003906 165.589844 61.089844 167.316406 62.203125 C 173.835938 66.410156 178.382812 72.265625 181.585938 79.242188 C 182.277344 80.757812 182.808594 82.347656 183.542969 83.839844 C 184.371094 85.515625 182.953125 89.597656 180.984375 89.90625 C 179.824219 90.089844 178.660156 90.398438 177.496094 90.410156 C 175.222656 90.429688 172.9375 90.394531 170.675781 90.167969 C 168.15625 89.917969 165.660156 89.429688 162.96875 89.011719 C 162.96875 90.511719 163.164062 92.175781 162.933594 93.773438 C 162.226562 98.609375 160.925781 103.214844 157.449219 106.941406 C 155.195312 109.359375 152.789062 111.574219 150.152344 113.566406 C 147.945312 115.238281 145.902344 117.128906 143.652344 118.734375 C 138.324219 122.535156 132.449219 125.304688 126.292969 127.457031 C 121.066406 129.28125 115.886719 131.199219 110.910156 133.644531 C 109.121094 134.527344 107.191406 135.125 105.367188 135.933594 C 103.921875 136.578125 102.507812 137.304688 101.125 138.074219 C 99.164062 139.171875 97.882812 140.917969 96.84375 142.847656 C 96.128906 144.175781 95.457031 145.523438 94.769531 146.863281 C 93.921875 148.523438 93.519531 150.296875 93.445312 152.148438 C 93.296875 155.828125 93.652344 159.460938 94.125 163.113281 C 94.558594 166.492188 95.085938 169.910156 94.390625 173.328125 C 94.015625 175.1875 93.03125 176.75 91.449219 177.804688 C 90.214844 178.625 88.753906 178.449219 87.367188 178.199219 C 81.679688 177.179688 77.667969 173.753906 74.484375 169.167969 C 71.996094 165.585938 70.742188 161.519531 69.871094 157.316406 C 69.515625 155.605469 69.34375 153.855469 69.074219 152.035156 C 68.34375 152.363281 67.597656 152.679688 66.867188 153.03125 C 59.480469 156.585938 52.867188 161.21875 47.132812 167.085938 C 47.09375 167.125 47.054688 167.164062 47.015625 167.203125 C 45.875 168.398438 45.886719 168.390625 44.757812 167.074219 C 41.109375 162.8125 39.1875 157.945312 39.542969 152.28125 C 39.742188 149.15625 40.476562 146.132812 41.875 143.351562 C 44.691406 137.773438 48.613281 133.132812 54.019531 129.824219 C 56.449219 128.339844 58.671875 126.46875 61.210938 125.222656 C 66.890625 122.441406 72.703125 119.96875 78.875 118.359375 C 80.90625 117.828125 82.804688 116.582031 84.617188 115.429688 C 94.480469 109.148438 102.9375 101.320312 110.101562 92.089844 C 110.699219 91.316406 111.160156 90.539062 111.28125 89.53125 C 111.535156 87.453125 110.800781 85.796875 108.984375 84.746094 C 106.53125 83.328125 104.007812 83.21875 101.246094 83.90625 C 96.640625 85.054688 91.910156 85.625 87.167969 85.667969 C 81.574219 85.71875 75.972656 85.613281 70.386719 85.292969 C 67.507812 85.128906 64.65625 84.402344 61.808594 83.835938 C 59.421875 83.359375 57.09375 82.542969 54.691406 82.242188 C 50.351562 81.695312 45.992188 81.808594 41.632812 82.3125 C 37.125 82.835938 32.753906 83.984375 28.332031 84.921875 C 25.449219 85.527344 22.503906 85.871094 19.566406 86.179688 C 18.453125 86.296875 17.25 86.128906 16.160156 85.835938 C 13.609375 85.148438 11.8125 82.769531 11.5 80.15625 C 11.042969 76.378906 12.066406 73.140625 14.410156 70.128906 C 17.796875 65.785156 21.519531 61.859375 26.265625 58.980469 C 30.070312 56.675781 34.238281 55.242188 38.449219 53.917969 C 38.890625 53.78125 39.367188 53.648438 39.820312 53.675781 C 40.578125 53.71875 40.910156 53.335938 41.253906 52.734375 C 46.992188 42.542969 54.671875 34.210938 64.84375 28.28125 C 70.203125 25.148438 75.914062 22.871094 81.984375 21.300781 Z M 78.964844 48.53125 C 80.644531 47.996094 81.71875 46.882812 82.050781 45.152344 C 82.210938 44.300781 82.238281 43.417969 82.242188 42.546875 C 82.25 41.542969 81.820312 40.6875 81.082031 40.011719 C 79.820312 38.855469 78.351562 38.578125 76.667969 38.820312 C 74.609375 39.117188 73.445312 40.433594 72.777344 42.167969 C 72.121094 43.875 72.398438 45.582031 73.695312 46.984375 C 75.085938 48.496094 76.820312 49 78.964844 48.53125 Z M 78.964844 48.53125 "/>
<path style=" stroke:none;fill-rule:nonzero;fill:rgb(97.254902%,83.529412%,36.862745%);fill-opacity:1;" d="M 179.429688 59.207031 C 188.132812 59.199219 196.757812 59.207031 205.378906 59.175781 C 207.574219 59.167969 209.78125 58.84375 211.949219 59.03125 C 213.21875 59.140625 214.527344 59.804688 215.636719 60.503906 C 218.207031 62.121094 219.382812 64.695312 219.417969 67.609375 C 219.519531 76.027344 219.714844 84.457031 219.386719 92.863281 C 218.9375 104.445312 219.261719 116.019531 219.167969 127.597656 C 219.074219 139.167969 219.179688 150.742188 219.140625 162.3125 C 219.132812 164.984375 217.328125 166.511719 215.113281 167.53125 C 213.09375 168.460938 210.925781 168.734375 208.691406 168.621094 C 206.992188 168.539062 205.289062 168.59375 203.585938 168.59375 C 184.992188 168.597656 166.402344 168.597656 147.808594 168.628906 C 147.140625 168.628906 146.441406 168.917969 145.808594 169.195312 C 145.273438 169.425781 145.234375 169.925781 145.800781 170.164062 C 146.464844 170.445312 147.191406 170.71875 147.898438 170.738281 C 153.933594 170.886719 159.972656 170.964844 166.007812 171.097656 C 168.15625 171.144531 170.265625 171.460938 172.273438 172.285156 C 176.414062 173.988281 178.539062 177.269531 179.402344 181.484375 C 179.636719 182.625 179.730469 183.816406 179.738281 184.984375 C 179.769531 190.960938 179.800781 196.941406 179.726562 202.917969 C 179.707031 204.597656 179.40625 206.285156 179.082031 207.941406 C 178.804688 209.367188 177.8125 210.371094 176.542969 211.011719 C 174.203125 212.191406 171.765625 212.902344 169.074219 212.894531 C 149.738281 212.847656 130.40625 212.882812 111.078125 212.875 C 107.976562 212.871094 105.542969 211.511719 103.972656 208.859375 C 102.816406 206.910156 101.8125 204.84375 101.59375 202.53125 C 101.515625 201.695312 101.644531 200.84375 101.652344 200 C 101.667969 198.355469 101.667969 196.710938 101.667969 195.0625 C 101.667969 179.570312 101.65625 164.078125 101.671875 148.585938 C 101.671875 146.949219 102.476562 145.582031 103.5625 144.417969 C 105.308594 142.554688 107.5625 141.429688 109.886719 140.53125 C 114.492188 138.742188 119.1875 137.195312 123.777344 135.371094 C 126.46875 134.300781 129.015625 132.875 131.636719 131.632812 C 134.335938 130.355469 137.085938 129.175781 139.75 127.824219 C 143.351562 125.996094 147.085938 124.40625 150.25 121.765625 C 152.347656 120.015625 154.820312 118.71875 156.925781 116.984375 C 160.125 114.355469 163.222656 111.554688 165.488281 108.054688 C 166.539062 106.421875 167.160156 104.503906 167.921875 102.691406 C 168.441406 101.457031 168.847656 100.179688 169.335938 98.929688 C 169.570312 98.339844 170.066406 98.097656 170.664062 97.832031 C 172.921875 96.832031 175.386719 96.976562 177.714844 96.429688 C 179.285156 96.0625 180.820312 95.535156 182.351562 95.011719 C 185.53125 93.921875 187.300781 91.457031 188.636719 88.550781 C 189.691406 86.261719 189.570312 83.84375 189.425781 81.460938 C 189.195312 77.628906 187.980469 74.074219 185.894531 70.828125 C 183.839844 67.628906 181.273438 65.003906 177.800781 63.320312 C 175.90625 62.402344 174.042969 61.410156 172.183594 60.421875 C 171.96875 60.308594 171.859375 59.988281 171.703125 59.765625 C 172 59.578125 172.292969 59.242188 172.59375 59.234375 C 174.84375 59.1875 177.09375 59.207031 179.429688 59.207031 Z M 158.09375 196.433594 C 159.113281 197.179688 160.230469 197.433594 161.496094 197.277344 C 164.214844 196.941406 166.03125 194.648438 165.566406 191.949219 C 165.066406 189.054688 162.175781 187.792969 159.996094 188.144531 C 158.097656 188.449219 157.023438 189.730469 156.570312 191.488281 C 156.085938 193.351562 156.386719 195.070312 158.09375 196.433594 Z M 158.09375 196.433594 "/>
<path style=" stroke:none;fill-rule:nonzero;fill:rgb(100%,100%,100%);fill-opacity:1;" d="M 82.476562 43.824219 C 82.476562 46.613281 80.210938 48.875 77.417969 48.875 C 74.625 48.875 72.359375 46.613281 72.359375 43.824219 C 72.359375 41.035156 74.625 38.773438 77.417969 38.773438 C 80.210938 38.773438 82.476562 41.035156 82.476562 43.824219 Z M 82.476562 43.824219 "/>
<path style=" stroke:none;fill-rule:nonzero;fill:rgb(100%,100%,100%);fill-opacity:1;" d="M 165.847656 192.351562 C 165.847656 195.140625 163.582031 197.402344 160.789062 197.402344 C 157.996094 197.402344 155.730469 195.140625 155.730469 192.351562 C 155.730469 189.5625 157.996094 187.300781 160.789062 187.300781 C 163.582031 187.300781 165.847656 189.5625 165.847656 192.351562 Z M 165.847656 192.351562 "/>
</g>
</svg>
